<mxfile host="65bd71144e">
    <diagram id="GttEo27Af4iq2H9vJMEY" name="Page-1">
        <mxGraphModel dx="975" dy="625" grid="1" gridSize="10" guides="1" tooltips="1" connect="1" arrows="1" fold="1" page="1" pageScale="1" pageWidth="850" pageHeight="1100" math="0" shadow="0">
            <root>
                <mxCell id="0"/>
                <mxCell id="1" parent="0"/>
                <mxCell id="13" value="" style="group" vertex="1" connectable="0" parent="1">
                    <mxGeometry x="80" y="90" width="400" height="610" as="geometry"/>
                </mxCell>
                <mxCell id="7" value="&lt;h1&gt;Core packages&lt;/h1&gt;" style="text;html=1;fillColor=#76608a;spacing=5;spacingTop=-15;whiteSpace=wrap;overflow=hidden;rounded=1;shadow=0;backgroundOutline=1;arcSize=5;spacingLeft=10;strokeColor=#432D57;fontColor=#ffffff;" vertex="1" parent="13">
                    <mxGeometry width="400" height="610" as="geometry"/>
                </mxCell>
                <mxCell id="12" value="&lt;h1 style=&quot;font-size: 16px;&quot;&gt;Support packages&lt;/h1&gt;" style="text;html=1;strokeColor=default;fillColor=none;spacing=5;spacingTop=-10;whiteSpace=wrap;overflow=hidden;rounded=1;shadow=0;fontSize=16;arcSize=7;spacingLeft=5;spacingBottom=0;" vertex="1" parent="13">
                    <mxGeometry x="25" y="410" width="350" height="170" as="geometry"/>
                </mxCell>
                <mxCell id="5" value="Udap.Client" style="rounded=1;whiteSpace=wrap;html=1;" vertex="1" parent="13">
                    <mxGeometry x="210" y="90" width="160" height="60" as="geometry"/>
                </mxCell>
                <mxCell id="3" value="Udap.Server" style="rounded=1;whiteSpace=wrap;html=1;" vertex="1" parent="13">
                    <mxGeometry x="210" y="290" width="160" height="60" as="geometry"/>
                </mxCell>
                <mxCell id="8" value="Udap.Common" style="rounded=1;whiteSpace=wrap;html=1;shadow=0;strokeColor=default;" vertex="1" parent="13">
                    <mxGeometry x="220" y="430" width="100" height="30" as="geometry"/>
                </mxCell>
                <mxCell id="6" value="Udap.MetadataServer" style="rounded=1;whiteSpace=wrap;html=1;" vertex="1" parent="13">
                    <mxGeometry x="210" y="190" width="160" height="60" as="geometry"/>
                </mxCell>
                <mxCell id="9" value="Udap.Util" style="whiteSpace=wrap;html=1;rounded=1;shadow=0;" vertex="1" parent="13">
                    <mxGeometry x="220" y="520" width="70" height="30" as="geometry"/>
                </mxCell>
                <mxCell id="11" value="Udap.Model" style="rounded=1;whiteSpace=wrap;html=1;shadow=0;strokeColor=default;" vertex="1" parent="13">
                    <mxGeometry x="220" y="475" width="90" height="30" as="geometry"/>
                </mxCell>
                <mxCell id="14" value="Client Implemenations" style="shape=cube;whiteSpace=wrap;html=1;boundedLbl=1;backgroundOutline=1;darkOpacity=0.05;darkOpacity2=0.1;rounded=1;shadow=0;strokeColor=default;fontSize=12;" vertex="1" parent="1">
                    <mxGeometry x="590" y="159" width="140" height="80" as="geometry"/>
                </mxCell>
                <mxCell id="16" value="" style="endArrow=none;dashed=1;html=1;fontSize=12;" edge="1" parent="1" source="5" target="14">
                    <mxGeometry width="50" height="50" relative="1" as="geometry">
                        <mxPoint x="480" y="240" as="sourcePoint"/>
                        <mxPoint x="530" y="190" as="targetPoint"/>
                    </mxGeometry>
                </mxCell>
                <mxCell id="17" value="REST based&lt;br&gt;Data Holder" style="shape=cube;whiteSpace=wrap;html=1;boundedLbl=1;backgroundOutline=1;darkOpacity=0.05;darkOpacity2=0.1;rounded=1;shadow=0;strokeColor=default;fontSize=12;" vertex="1" parent="1">
                    <mxGeometry x="590" y="267" width="140" height="80" as="geometry"/>
                </mxCell>
                <mxCell id="18" value="" style="endArrow=none;dashed=1;html=1;dashPattern=1 3;strokeWidth=2;fontSize=12;entryX=-0.016;entryY=0.441;entryDx=0;entryDy=0;entryPerimeter=0;" edge="1" parent="1" source="6" target="17">
                    <mxGeometry width="50" height="50" relative="1" as="geometry">
                        <mxPoint x="500" y="340" as="sourcePoint"/>
                        <mxPoint x="550" y="290" as="targetPoint"/>
                    </mxGeometry>
                </mxCell>
                <mxCell id="19" value="Duende &lt;br&gt;Auth Server role" style="shape=cube;whiteSpace=wrap;html=1;boundedLbl=1;backgroundOutline=1;darkOpacity=0.05;darkOpacity2=0.1;rounded=1;shadow=0;strokeColor=default;fontSize=12;" vertex="1" parent="1">
                    <mxGeometry x="590" y="480" width="140" height="80" as="geometry"/>
                </mxCell>
                <mxCell id="20" value="Duende &lt;br&gt;Identity Server role" style="shape=cube;whiteSpace=wrap;html=1;boundedLbl=1;backgroundOutline=1;darkOpacity=0.05;darkOpacity2=0.1;rounded=1;shadow=0;strokeColor=default;fontSize=12;" vertex="1" parent="1">
                    <mxGeometry x="590" y="375" width="140" height="80" as="geometry"/>
                </mxCell>
                <mxCell id="21" value="" style="endArrow=none;dashed=1;html=1;dashPattern=1 3;strokeWidth=2;fontSize=12;" edge="1" parent="1" source="6" target="20">
                    <mxGeometry width="50" height="50" relative="1" as="geometry">
                        <mxPoint x="520" y="410" as="sourcePoint"/>
                        <mxPoint x="570" y="360" as="targetPoint"/>
                    </mxGeometry>
                </mxCell>
                <mxCell id="22" value="" style="endArrow=none;dashed=1;html=1;dashPattern=1 3;strokeWidth=2;fontSize=12;exitX=1;exitY=0.25;exitDx=0;exitDy=0;" edge="1" parent="1" source="3" target="20">
                    <mxGeometry width="50" height="50" relative="1" as="geometry">
                        <mxPoint x="510" y="520" as="sourcePoint"/>
                        <mxPoint x="560" y="470" as="targetPoint"/>
                    </mxGeometry>
                </mxCell>
                <mxCell id="23" value="" style="endArrow=none;dashed=1;html=1;dashPattern=1 3;strokeWidth=2;fontSize=12;" edge="1" parent="1" source="3" target="19">
                    <mxGeometry width="50" height="50" relative="1" as="geometry">
                        <mxPoint x="530" y="580" as="sourcePoint"/>
                        <mxPoint x="580" y="530" as="targetPoint"/>
                    </mxGeometry>
                </mxCell>
                <mxCell id="24" value="" style="endArrow=none;dashed=1;html=1;dashPattern=1 3;strokeWidth=2;fontSize=12;entryX=0;entryY=0.5;entryDx=0;entryDy=0;exitX=0.001;exitY=0.459;exitDx=0;exitDy=0;exitPerimeter=0;fillColor=#f0a30a;strokeColor=#BD7000;" edge="1" parent="1" source="19" target="5">
                    <mxGeometry width="50" height="50" relative="1" as="geometry">
                        <mxPoint x="320" y="300" as="sourcePoint"/>
                        <mxPoint x="370" y="250" as="targetPoint"/>
                        <Array as="points">
                            <mxPoint x="260" y="450"/>
                            <mxPoint x="260" y="220"/>
                        </Array>
                    </mxGeometry>
                </mxCell>
                <mxCell id="26" value="Consumers" style="text;html=1;strokeColor=none;fillColor=none;align=center;verticalAlign=middle;whiteSpace=wrap;rounded=0;shadow=0;fontSize=16;fontStyle=1" vertex="1" parent="1">
                    <mxGeometry x="600" y="100" width="110" height="30" as="geometry"/>
                </mxCell>
            </root>
        </mxGraphModel>
    </diagram>
</mxfile>